<?xml version="1.0" encoding="UTF-8"?>
<svg width="117px" height="30px" viewBox="0 0 117 30" version="1.1" xmlns="http://www.w3.org/2000/svg" xmlns:xlink="http://www.w3.org/1999/xlink">
    <!-- Generator: Sketch 51.2 (57519) - http://www.bohemiancoding.com/sketch -->
    <title>Group 30</title>
    <desc>Created with Sketch.</desc>
    <defs>
        <linearGradient x1="7.56000475%" y1="6.42510776%" x2="95.7491683%" y2="93.4502963%" id="linearGradient-1">
            <stop stop-color="#3680D6" offset="0%"></stop>
            <stop stop-color="#4B0FBF" offset="100%"></stop>
        </linearGradient>
    </defs>
    <g id="Symbols" stroke="none" stroke-width="1" fill="none" fill-rule="evenodd">
        <g id="Footer" transform="translate(-130.000000, -65.000000)">
            <g id="Group-30" transform="translate(130.000000, 65.000000)">
                <g id="Group-26">
                    <rect id="Rectangle-17" fill="url(#linearGradient-1)" fill-rule="nonzero" x="0" y="0" width="30.1102941" height="30" rx="5"></rect>
                    <path d="M17.082467,28.0145889 C16.8961071,28.0145889 16.7283856,27.9650756 16.5792977,27.8660477 C15.162962,26.9252827 14.0789845,25.7586277 13.3273327,24.3660477 C12.5756808,22.9734678 12.1998605,21.4602204 12.1998605,19.8262599 C12.1998605,18.1922995 12.5756808,16.6790521 13.3273327,15.2864721 C14.0789845,13.8938922 15.162962,12.7272372 16.5792977,11.7864721 C16.7283856,11.6874442 16.8961071,11.637931 17.082467,11.637931 C17.355795,11.637931 17.5794236,11.7431466 17.7533595,11.9535809 C17.9272955,12.1640152 18.0142622,12.3806355 18.0142622,12.6034483 C18.0142622,12.8881535 17.8838122,13.1357195 17.6229082,13.3461538 C16.5668685,14.1631341 15.7748505,15.1286416 15.2468306,16.2427056 C14.7188107,17.3567695 14.4548048,18.5512757 14.4548048,19.8262599 C14.4548048,21.1260012 14.7157048,22.3421694 15.2375127,23.4748011 C15.7593206,24.6074327 16.5544445,25.5512783 17.6229082,26.306366 C17.8838122,26.4920434 18.0142622,26.7396094 18.0142622,27.0490716 C18.0142622,27.2842629 17.9210836,27.5039778 17.7347236,27.7082228 C17.5483637,27.9124679 17.330947,28.0145889 17.082467,28.0145889 Z" id="(" fill="#FFFFFF" transform="translate(15.107061, 19.826260) rotate(-90.000000) translate(-15.107061, -19.826260) "></path>
                </g>
                <path d="M52.7698479,19.2331034 C52.8252234,19.3765524 52.8529108,19.5089649 52.8529108,19.6303448 C52.8529108,19.9172428 52.7587738,20.1517232 52.570497,20.3337931 C52.3822202,20.515863 52.1662588,20.6068966 51.9226065,20.6068966 C51.7232546,20.6068966 51.5432868,20.5462075 51.3826978,20.4248276 C51.2221087,20.3034477 51.0975157,20.1379321 51.0089148,19.9282759 L50.1450609,17.9255172 L45.1945132,17.9255172 L44.3306592,19.9448276 C44.2531335,20.1544838 44.1340779,20.3172408 43.9734888,20.4331034 C43.8128998,20.5489661 43.6384695,20.6068966 43.4501927,20.6068966 C43.1622399,20.6068966 42.9435099,20.5296559 42.7939959,20.3751724 C42.644482,20.2206889 42.5697262,20.0110358 42.5697262,19.7462069 C42.5697262,19.6468961 42.5863386,19.5420695 42.6195639,19.4317241 L46.7560953,9.5337931 C46.8446962,9.31310234 46.9775955,9.14206957 47.1547972,9.02068966 C47.3319989,8.89930974 47.5313478,8.84965506 47.7528499,8.87172414 C47.9522018,8.87172414 48.1377071,8.92965459 48.3093712,9.04551724 C48.4810353,9.16137989 48.6056284,9.32413688 48.6831542,9.5337931 L52.7698479,19.2331034 Z M46.0085294,16.022069 L49.3310446,16.022069 L47.6531744,12.1489655 L46.0085294,16.022069 Z M59.8426522,11.5034483 C60.6068345,11.5034483 61.2990182,11.6993084 61.9192242,12.0910345 C62.5394301,12.4827606 63.0294962,13.0262034 63.3894371,13.7213793 C63.7493781,14.4165552 63.9293459,15.2055128 63.9293459,16.0882759 C63.9293459,16.9710389 63.7521468,17.7627551 63.3977434,18.4634483 C63.04334,19.1641414 62.5588114,19.7103429 61.944143,20.102069 C61.3294746,20.4937951 60.6511346,20.6896552 59.9091025,20.6896552 C59.3774974,20.6896552 58.8763563,20.58207 58.4056643,20.3668966 C57.9349723,20.1517231 57.5445807,19.8896567 57.2344777,19.5806897 L57.2344777,22.8248276 C57.2344777,23.1117256 57.1403407,23.3517232 56.9520639,23.5448276 C56.7637871,23.737932 56.5256759,23.8344828 56.2377231,23.8344828 C55.9497704,23.8344828 55.7116592,23.7406906 55.5233824,23.5531034 C55.3351056,23.3655163 55.2409686,23.1227601 55.2409686,22.8248276 L55.2409686,12.6786207 C55.2409686,12.3917227 55.3351056,12.1517251 55.5233824,11.9586207 C55.7116592,11.7655163 55.9497704,11.6689655 56.2377231,11.6689655 C56.5256759,11.6689655 56.7637871,11.7655163 56.9520639,11.9586207 C57.1403407,12.1517251 57.2344777,12.3917227 57.2344777,12.6786207 L57.2344777,12.7448276 C57.5002803,12.4137914 57.8712907,12.1241392 58.3475203,11.8758621 C58.8237499,11.627585 59.3221222,11.5034483 59.8426522,11.5034483 Z M59.5934635,18.8689655 C60.3022703,18.8689655 60.8837047,18.6041406 61.337784,18.0744828 C61.7918633,17.5448249 62.0188996,16.8827626 62.0188996,16.0882759 C62.0188996,15.2937891 61.7946321,14.6344854 61.3460903,14.1103448 C60.8975485,13.5862043 60.3133454,13.3241379 59.5934635,13.3241379 C58.8735816,13.3241379 58.2866098,13.5862043 57.8325305,14.1103448 C57.3784511,14.6344854 57.1514148,15.2937891 57.1514148,16.0882759 C57.1514148,16.8827626 57.3784511,17.5448249 57.8325305,18.0744828 C58.2866098,18.6041406 58.8735816,18.8689655 59.5934635,18.8689655 Z M71.3344017,11.5034483 C72.098584,11.5034483 72.7907677,11.6993084 73.4109737,12.0910345 C74.0311796,12.4827606 74.5212457,13.0262034 74.8811867,13.7213793 C75.2411276,14.4165552 75.4210954,15.2055128 75.4210954,16.0882759 C75.4210954,16.9710389 75.2438963,17.7627551 74.889493,18.4634483 C74.5350896,19.1641414 74.0505609,19.7103429 73.4358925,20.102069 C72.8212242,20.4937951 72.1428841,20.6896552 71.400852,20.6896552 C70.8692469,20.6896552 70.3681059,20.58207 69.8974138,20.3668966 C69.4267218,20.1517231 69.0363302,19.8896567 68.7262272,19.5806897 L68.7262272,22.8248276 C68.7262272,23.1117256 68.6320902,23.3517232 68.4438134,23.5448276 C68.2555366,23.737932 68.0174254,23.8344828 67.7294727,23.8344828 C67.4415199,23.8344828 67.2034087,23.7406906 67.0151319,23.5531034 C66.8268551,23.3655163 66.7327181,23.1227601 66.7327181,22.8248276 L66.7327181,12.6786207 C66.7327181,12.3917227 66.8268551,12.1517251 67.0151319,11.9586207 C67.2034087,11.7655163 67.4415199,11.6689655 67.7294727,11.6689655 C68.0174254,11.6689655 68.2555366,11.7655163 68.4438134,11.9586207 C68.6320902,12.1517251 68.7262272,12.3917227 68.7262272,12.6786207 L68.7262272,12.7448276 C68.9920298,12.4137914 69.3630403,12.1241392 69.8392698,11.8758621 C70.3154994,11.627585 70.8138717,11.5034483 71.3344017,11.5034483 Z M71.085213,18.8689655 C71.7940198,18.8689655 72.3754542,18.6041406 72.8295335,18.0744828 C73.2836129,17.5448249 73.5106491,16.8827626 73.5106491,16.0882759 C73.5106491,15.2937891 73.2863816,14.6344854 72.8378398,14.1103448 C72.389298,13.5862043 71.8050949,13.3241379 71.085213,13.3241379 C70.3653311,13.3241379 69.7783593,13.5862043 69.32428,14.1103448 C68.8702006,14.6344854 68.6431643,15.2937891 68.6431643,16.0882759 C68.6431643,16.8827626 68.8702006,17.5448249 69.32428,18.0744828 C69.7783593,18.6041406 70.3653311,18.8689655 71.085213,18.8689655 Z M82.4938997,10.0303448 C82.1173461,10.0303448 81.8515475,10.13793 81.696496,10.3531034 C81.5414445,10.5682769 81.46392,10.8027574 81.46392,11.0565517 L81.46392,11.8344828 L82.9756644,11.8344828 C83.2414669,11.8344828 83.4629657,11.9199991 83.6401674,12.0910345 C83.8173691,12.2620698 83.9059686,12.4799987 83.9059686,12.7448276 C83.9059686,13.0096565 83.8173691,13.2275854 83.6401674,13.3986207 C83.4629657,13.569656 83.2414669,13.6551724 82.9756644,13.6551724 L81.46392,13.6551724 L81.46392,19.5144828 C81.46392,19.8013807 81.369783,20.0413783 81.1815062,20.2344828 C80.9932294,20.4275872 80.7551181,20.5241379 80.4671654,20.5241379 C80.1792126,20.5241379 79.9411014,20.4275872 79.7528246,20.2344828 C79.5645478,20.0413783 79.4704108,19.8013807 79.4704108,19.5144828 L79.4704108,13.6551724 L78.5733317,13.6551724 C78.3075292,13.6551724 78.0860304,13.569656 77.9088287,13.3986207 C77.731627,13.2275854 77.6430275,13.0096565 77.6430275,12.7448276 C77.6430275,12.4799987 77.731627,12.2620698 77.9088287,12.0910345 C78.0860304,11.9199991 78.3075292,11.8344828 78.5733317,11.8344828 L79.4704108,11.8344828 L79.4704108,11.0731034 C79.4704108,10.2455131 79.7555905,9.57241639 80.3259585,9.0537931 C80.8963265,8.53516982 81.7186407,8.27586207 82.792926,8.27586207 C83.202705,8.27586207 83.5598718,8.35861986 83.8644372,8.52413793 C84.1690026,8.689656 84.321283,8.94344657 84.321283,9.28551724 C84.321283,9.55034615 84.2437585,9.76551641 84.088707,9.93103448 C83.9336555,10.0965526 83.7453815,10.1793103 83.5238794,10.1793103 C83.4685039,10.1793103 83.4103604,10.1737932 83.3494473,10.1627586 C83.2885343,10.1517241 83.2248533,10.1406897 83.1584027,10.1296552 C82.8926002,10.0634479 82.6711014,10.0303448 82.4938997,10.0303448 Z M94.8328906,16.1048276 C94.8328906,16.9875906 94.6335416,17.7793068 94.2348378,18.48 C93.836134,19.1806932 93.2906932,19.724136 92.5984991,20.1103448 C91.906305,20.4965537 91.1449028,20.6896552 90.3142699,20.6896552 C89.4725618,20.6896552 88.708391,20.4965537 88.0217344,20.1103448 C87.3350778,19.724136 86.7924057,19.1806932 86.3937019,18.48 C85.9949981,17.7793068 85.7956492,16.9875906 85.7956492,16.1048276 C85.7956492,15.2220646 85.9949981,14.4303483 86.3937019,13.7296552 C86.7924057,13.028962 87.3350778,12.4827606 88.0217344,12.0910345 C88.708391,11.6993084 89.4725618,11.5034483 90.3142699,11.5034483 C91.1449028,11.5034483 91.906305,11.6993084 92.5984991,12.0910345 C93.2906932,12.4827606 93.836134,13.028962 94.2348378,13.7296552 C94.6335416,14.4303483 94.8328906,15.2220646 94.8328906,16.1048276 Z M92.8393814,16.1048276 C92.8393814,15.5641352 92.7258633,15.0813814 92.4988236,14.6565517 C92.271784,14.231722 91.9672231,13.9034494 91.5851319,13.6717241 C91.2030408,13.4399988 90.7794243,13.3241379 90.3142699,13.3241379 C89.8491154,13.3241379 89.425499,13.4399988 89.0434078,13.6717241 C88.6613166,13.9034494 88.3567558,14.231722 88.1297161,14.6565517 C87.9026764,15.0813814 87.7891583,15.5641352 87.7891583,16.1048276 C87.7891583,16.6455199 87.9026764,17.1255151 88.1297161,17.5448276 C88.3567558,17.96414 88.6613166,18.289654 89.0434078,18.5213793 C89.425499,18.7531046 89.8491154,18.8689655 90.3142699,18.8689655 C90.7794243,18.8689655 91.2030408,18.7531046 91.5851319,18.5213793 C91.9672231,18.289654 92.271784,17.96414 92.4988236,17.5448276 C92.7258633,17.1255151 92.8393814,16.6455199 92.8393814,16.1048276 Z M99.7958977,19.5144828 C99.7958977,19.8013807 99.698992,20.0413783 99.5051776,20.2344828 C99.3113633,20.4275872 99.0704833,20.5241379 98.7825305,20.5241379 C98.5056529,20.5241379 98.2730792,20.4275872 98.0848024,20.2344828 C97.8965256,20.0413783 97.8023886,19.8013807 97.8023886,19.5144828 L97.8023886,9.28551724 C97.8023886,8.99861926 97.8992943,8.75862166 98.0931086,8.56551724 C98.286923,8.37241283 98.5278029,8.27586207 98.8157557,8.27586207 C99.0926334,8.27586207 99.3252071,8.37241283 99.5134839,8.56551724 C99.7017607,8.75862166 99.7958977,8.99861926 99.7958977,9.28551724 L99.7958977,19.5144828 Z M105.140994,19.5144828 C105.140994,19.8013807 105.046857,20.0413783 104.85858,20.2344828 C104.670303,20.4275872 104.432192,20.5241379 104.144239,20.5241379 C103.856287,20.5241379 103.618176,20.4275872 103.429899,20.2344828 C103.241622,20.0413783 103.147485,19.8013807 103.147485,19.5144828 L103.147485,12.6786207 C103.147485,12.3917227 103.241622,12.1517251 103.429899,11.9586207 C103.618176,11.7655163 103.856287,11.6689655 104.144239,11.6689655 C104.432192,11.6689655 104.670303,11.7655163 104.85858,11.9586207 C105.046857,12.1517251 105.140994,12.3917227 105.140994,12.6786207 L105.140994,19.5144828 Z M104.127627,10.5931034 C103.751073,10.5931034 103.485275,10.5324144 103.330223,10.4110345 C103.175172,10.2896546 103.097647,10.0744843 103.097647,9.76551724 L103.097647,9.45103448 C103.097647,9.14206742 103.180709,8.92689716 103.346836,8.80551724 C103.512962,8.68413732 103.778761,8.62344828 104.144239,8.62344828 C104.531868,8.62344828 104.803204,8.68413732 104.958256,8.80551724 C105.113307,8.92689716 105.190832,9.14206742 105.190832,9.45103448 L105.190832,9.76551724 C105.190832,10.0855188 105.110538,10.3034477 104.949949,10.4193103 C104.78936,10.535173 104.515256,10.5931034 104.127627,10.5931034 Z M116.86532,16.1048276 C116.86532,16.9875906 116.665971,17.7793068 116.267267,18.48 C115.868563,19.1806932 115.323122,19.724136 114.630928,20.1103448 C113.938734,20.4965537 113.177332,20.6896552 112.346699,20.6896552 C111.504991,20.6896552 110.74082,20.4965537 110.054163,20.1103448 C109.367507,19.724136 108.824835,19.1806932 108.426131,18.48 C108.027427,17.7793068 107.828078,16.9875906 107.828078,16.1048276 C107.828078,15.2220646 108.027427,14.4303483 108.426131,13.7296552 C108.824835,13.028962 109.367507,12.4827606 110.054163,12.0910345 C110.74082,11.6993084 111.504991,11.5034483 112.346699,11.5034483 C113.177332,11.5034483 113.938734,11.6993084 114.630928,12.0910345 C115.323122,12.4827606 115.868563,13.028962 116.267267,13.7296552 C116.665971,14.4303483 116.86532,15.2220646 116.86532,16.1048276 Z M114.871811,16.1048276 C114.871811,15.5641352 114.758292,15.0813814 114.531253,14.6565517 C114.304213,14.231722 113.999652,13.9034494 113.617561,13.6717241 C113.23547,13.4399988 112.811853,13.3241379 112.346699,13.3241379 C111.881545,13.3241379 111.457928,13.4399988 111.075837,13.6717241 C110.693746,13.9034494 110.389185,14.231722 110.162145,14.6565517 C109.935106,15.0813814 109.821587,15.5641352 109.821587,16.1048276 C109.821587,16.6455199 109.935106,17.1255151 110.162145,17.5448276 C110.389185,17.96414 110.693746,18.289654 111.075837,18.5213793 C111.457928,18.7531046 111.881545,18.8689655 112.346699,18.8689655 C112.811853,18.8689655 113.23547,18.7531046 113.617561,18.5213793 C113.999652,18.289654 114.304213,17.96414 114.531253,17.5448276 C114.758292,17.1255151 114.871811,16.6455199 114.871811,16.1048276 Z" id="Appfolio" fill="#1E3056"></path>
            </g>
        </g>
    </g>
</svg>